<?xml version="1.0" standalone="no"?>
<!DOCTYPE svg PUBLIC "-//W3C//DTD SVG 20010904//EN"
 "http://www.w3.org/TR/2001/REC-SVG-20010904/DTD/svg10.dtd">
<svg version="1.0" xmlns="http://www.w3.org/2000/svg"
 width="1424.000000pt" height="1424.000000pt" viewBox="0 0 1424.000000 1424.000000"
 preserveAspectRatio="xMidYMid meet">
<metadata>
Created by potrace 1.14, written by Peter Selinger 2001-2017
</metadata>
<g transform="translate(0.000000,1424.000000) scale(0.100000,-0.100000)"
fill="#000000" stroke="none">
<path d="M1025 10881 c-2 -2 -32 -5 -67 -6 -35 -2 -76 -6 -93 -9 -16 -4 -46
-9 -65 -12 -113 -19 -272 -106 -371 -204 -104 -103 -179 -255 -182 -372 -1
-32 -4 -58 -7 -58 -12 0 -1 -160 16 -243 3 -16 7 -38 9 -50 17 -123 179 -501
285 -667 16 -25 36 -59 45 -76 9 -17 25 -41 35 -52 11 -12 20 -24 20 -27 0 -6
40 -66 50 -75 3 -3 17 -21 30 -40 13 -19 30 -41 37 -48 7 -7 20 -26 30 -42 9
-17 20 -30 24 -30 4 0 26 -26 50 -57 24 -31 58 -71 74 -89 17 -17 66 -71 110
-120 101 -111 410 -420 584 -584 73 -69 159 -150 191 -180 121 -114 360 -334
394 -363 11 -10 35 -30 51 -45 43 -39 134 -113 171 -139 40 -28 84 -40 84 -23
0 13 -28 43 -248 268 -79 81 -194 200 -255 265 -62 66 -139 148 -173 183 -33
35 -88 94 -121 132 -34 37 -74 82 -90 99 -15 17 -57 63 -93 104 -36 40 -74 83
-85 95 -11 12 -29 33 -39 46 -11 13 -33 39 -50 58 -17 20 -49 57 -71 84 -22
27 -49 58 -59 70 -10 11 -63 77 -118 146 -54 69 -106 134 -116 146 -9 11 -33
43 -52 70 -19 27 -38 51 -42 52 -4 2 -8 9 -8 16 0 7 -9 21 -20 31 -11 10 -20
24 -20 32 0 7 -4 13 -10 13 -5 0 -10 5 -10 11 0 6 -6 17 -14 24 -7 8 -41 60
-76 117 -34 57 -66 110 -71 118 -44 71 -168 370 -154 370 2 0 0 11 -5 25 -33
86 -30 293 6 382 34 87 41 96 105 162 65 66 202 130 289 136 14 0 30 3 35 6
12 7 206 2 255 -5 19 -3 52 -8 73 -11 65 -10 268 -72 388 -119 64 -25 121 -46
128 -46 6 0 11 -4 11 -10 0 -5 6 -10 13 -10 8 0 41 -13 75 -30 34 -16 65 -30
67 -30 8 0 330 -162 395 -199 30 -17 66 -36 80 -43 14 -7 52 -28 85 -48 33
-20 71 -41 85 -48 14 -7 41 -23 61 -35 20 -12 63 -37 95 -56 33 -19 61 -37 64
-41 3 -3 18 -12 34 -20 56 -29 66 -35 66 -42 0 -5 5 -8 10 -8 6 0 16 -5 23
-10 17 -15 179 -119 197 -127 8 -4 17 -9 20 -12 8 -10 100 -71 106 -71 3 0 12
-6 19 -12 30 -27 44 -38 50 -38 10 0 361 -254 524 -379 90 -69 170 -130 179
-136 8 -5 24 -19 36 -30 12 -11 76 -64 142 -117 65 -54 133 -110 151 -125 17
-15 39 -35 50 -43 34 -29 248 -223 279 -254 17 -17 58 -56 90 -87 248 -237
541 -556 719 -784 17 -21 35 -44 40 -50 6 -6 15 -18 20 -27 6 -9 40 -60 76
-115 180 -266 328 -606 366 -834 8 -49 8 -295 1 -349 -3 -19 -9 -53 -14 -75
-4 -22 -8 -42 -9 -45 -3 -19 -29 -87 -35 -94 -5 -5 -6 -15 -3 -22 3 -8 0 -14
-6 -14 -6 0 -11 -6 -11 -13 0 -18 -24 -67 -32 -67 -5 0 -8 -6 -8 -14 0 -18
-120 -146 -137 -146 -7 0 -13 -3 -13 -8 0 -7 -25 -20 -85 -42 -61 -24 -127
-33 -220 -33 -79 0 -191 10 -204 17 -3 2 -31 7 -61 11 -30 4 -66 9 -80 12 -14
2 -73 6 -132 8 -91 3 -113 0 -147 -17 -43 -21 -67 -50 -77 -95 -11 -51 -10
-187 3 -238 17 -68 46 -149 55 -155 4 -3 9 -15 11 -25 1 -11 5 -24 9 -30 3 -5
18 -32 33 -60 43 -79 177 -279 205 -305 3 -3 30 -34 60 -70 30 -36 88 -100
130 -143 41 -43 77 -82 78 -87 2 -6 7 -10 11 -10 4 0 35 -26 68 -57 92 -89
290 -249 393 -318 25 -16 47 -33 48 -37 2 -5 10 -8 17 -8 7 0 15 -4 17 -8 12
-28 488 -294 522 -291 5 0 12 -3 15 -8 6 -8 149 -70 181 -79 8 -2 52 -17 96
-32 86 -31 216 -67 273 -77 19 -3 38 -8 41 -10 4 -3 25 -7 46 -10 22 -3 50 -8
64 -11 31 -7 132 -23 180 -29 19 -2 49 -6 65 -9 17 -3 59 -8 95 -11 36 -3 88
-8 115 -11 137 -13 321 -18 630 -17 275 1 580 7 580 13 0 0 36 3 80 5 44 3
114 7 155 10 41 3 107 7 145 10 102 6 211 15 232 19 10 2 43 7 74 10 31 4 67
9 79 11 12 2 41 7 64 9 22 3 52 8 66 11 14 2 45 7 70 9 25 3 56 8 70 11 14 3
39 7 55 10 82 11 133 20 218 36 34 6 73 12 87 14 14 1 50 7 80 13 30 7 69 14
85 17 17 3 41 7 55 10 14 3 50 9 80 15 30 6 66 13 80 16 14 3 36 7 50 10 24 4
75 15 130 29 14 3 37 8 52 11 15 3 72 16 125 30 54 14 107 27 118 29 11 2 54
13 95 25 41 12 80 23 85 24 66 14 307 107 406 158 158 81 243 172 240 257 -2
78 -31 154 -71 189 -20 17 -78 43 -110 48 -40 7 -82 26 -120 53 -60 44 -108
64 -155 63 -40 -1 -199 -13 -204 -16 -5 -3 -137 -17 -178 -19 -7 0 -13 -5 -13
-10 0 -5 -6 -4 -13 2 -8 6 -16 9 -18 6 -9 -8 -316 -26 -689 -41 -316 -12 -717
-7 -855 11 -118 15 -162 25 -295 67 -70 22 -216 88 -259 117 -14 10 -48 33
-76 51 -66 45 -158 143 -191 204 -47 86 -62 154 -59 268 1 57 6 119 9 138 23
118 107 316 185 440 23 36 44 73 47 83 4 9 10 17 15 17 5 0 9 6 9 14 0 8 7 17
16 20 8 3 12 10 9 16 -3 5 -3 10 2 10 4 0 19 17 33 37 14 21 32 45 40 53 8 9
31 36 50 60 81 102 260 286 385 395 38 33 78 69 90 80 12 11 48 40 81 64 32
25 64 50 69 55 6 6 33 27 60 45 28 19 52 37 55 40 3 4 12 11 21 16 9 6 61 40
115 76 55 36 115 74 134 85 19 10 37 21 40 24 3 3 16 11 30 18 14 7 43 24 65
37 47 28 318 164 390 195 121 53 242 103 255 106 3 0 12 3 20 6 8 4 24 9 35
14 11 4 22 8 25 9 3 1 12 4 20 8 66 26 420 137 485 152 35 8 72 17 85 22 8 3
22 7 30 8 8 1 29 5 45 9 63 13 247 46 253 45 4 -1 9 -1 12 0 10 4 79 11 253
27 34 3 105 7 157 9 52 3 145 7 205 11 61 3 362 7 670 8 406 2 572 6 603 15
25 7 66 33 101 64 34 31 76 57 102 65 49 15 103 52 119 82 6 11 13 44 16 74
19 176 -116 305 -481 460 -61 26 -123 53 -140 61 -16 7 -68 27 -115 45 -47 17
-94 35 -105 40 -42 18 -306 109 -410 140 -210 63 -360 105 -411 115 -10 2 -19
4 -19 5 0 2 -12 4 -55 13 -14 3 -32 8 -40 11 -8 3 -28 7 -45 10 -29 5 -56 10
-112 22 -16 3 -46 8 -68 11 -22 3 -42 8 -45 12 -3 3 -16 7 -30 7 -23 1 -70 8
-140 19 -87 14 -184 27 -226 30 -27 2 -76 7 -109 10 -33 2 -80 7 -105 10 -92
9 -228 17 -373 20 -82 2 -151 6 -154 9 -3 3 -14 1 -24 -4 -10 -6 -20 -7 -23
-2 -6 9 -48 8 -64 -2 -7 -4 -12 -4 -12 1 0 4 -43 8 -95 8 -52 0 -95 -3 -95 -7
0 -4 -11 -3 -24 2 -13 5 -26 6 -30 3 -3 -3 -60 -7 -128 -8 -161 -4 -404 -22
-528 -40 -14 -2 -43 -6 -65 -9 -175 -25 -327 -54 -485 -93 -255 -63 -296 -63
-495 4 -140 48 -196 65 -220 68 -5 1 -17 5 -25 8 -15 5 -136 34 -178 42 -13 2
-31 6 -40 9 -16 5 -42 10 -99 21 -16 3 -39 8 -53 11 -25 6 -107 21 -165 30
-16 3 -43 7 -60 10 -16 3 -50 7 -75 10 -45 4 -85 11 -85 14 0 2 -53 6 -215 15
-156 10 -271 10 -425 1 -121 -7 -134 -8 -327 -31 -24 -3 -95 -14 -158 -26 -63
-11 -128 -23 -145 -25 -23 -5 -196 -44 -345 -79 -8 -2 -15 -4 -15 -5 0 -1 -11
-4 -25 -5 -14 -2 -77 -17 -140 -34 -63 -16 -131 -33 -150 -36 -19 -3 -42 -8
-50 -10 -42 -11 -102 -18 -167 -18 -62 0 -82 5 -150 37 -43 21 -80 40 -83 44
-3 4 -21 15 -40 26 -81 43 -147 78 -175 95 -34 21 -101 59 -130 75 -32 18
-274 164 -342 207 -35 21 -91 57 -125 79 -102 64 -378 233 -422 258 -23 13
-51 30 -63 38 -13 8 -26 14 -29 13 -4 0 -10 3 -13 9 -3 5 -27 20 -52 34 -79
44 -94 53 -99 58 -3 3 -16 11 -30 18 -14 7 -47 26 -75 42 -27 17 -59 35 -70
41 -11 5 -38 20 -60 33 -22 14 -56 32 -75 42 -19 10 -57 31 -85 47 -27 16 -88
50 -135 75 -47 25 -101 54 -120 65 -59 34 -609 309 -715 359 -155 71 -405 177
-420 178 -3 0 -18 6 -33 14 -37 18 -349 129 -402 142 -8 2 -48 12 -87 23 -92
25 -110 28 -293 44 -14 1 -31 -2 -37 -7 -7 -4 -13 -5 -13 0 0 8 -197 13 -205
5z m6815 -2325 c51 -4 104 -11 161 -21 13 -2 40 -6 59 -9 36 -6 66 -11 113
-21 15 -3 39 -7 55 -10 15 -3 38 -8 52 -12 14 -3 30 -7 35 -8 6 -2 30 -8 55
-16 25 -7 50 -13 55 -15 6 -1 50 -16 99 -33 281 -98 446 -235 446 -372 0 -63
-19 -90 -105 -148 -48 -33 -186 -92 -270 -116 -33 -10 -67 -20 -75 -23 -8 -2
-22 -6 -30 -7 -8 -2 -24 -5 -35 -8 -54 -12 -128 -22 -250 -33 -106 -10 -492
-9 -550 0 -22 4 -50 8 -62 11 -43 7 -198 57 -210 67 -7 6 -13 8 -13 4 0 -11
-102 44 -166 90 -97 68 -170 169 -178 247 -1 15 -5 29 -8 32 -2 3 -1 37 4 77
8 68 33 141 57 170 6 7 19 23 29 34 37 46 154 97 271 119 13 2 25 6 28 8 5 5
364 0 433 -7z"/>
<path d="M3155 7072 c-57 -6 -150 -34 -189 -55 -47 -26 -116 -89 -116 -105 0
-7 -4 -12 -10 -12 -5 0 -10 -6 -10 -14 0 -8 -4 -16 -8 -18 -16 -6 -40 -117
-40 -183 0 -213 127 -415 402 -638 21 -18 44 -38 51 -44 8 -7 16 -13 20 -13 3
0 21 -11 38 -24 77 -58 232 -126 327 -143 50 -9 269 -9 308 0 167 38 275 126
310 251 13 50 5 256 -10 256 -5 0 -8 6 -8 14 0 13 -68 157 -79 166 -4 3 -18
23 -32 45 -39 59 -84 111 -172 198 -204 201 -443 313 -687 321 -36 1 -78 0
-95 -2z"/>
</g>
</svg>
