<?xml version="1.0" encoding="UTF-8" standalone="no"?>
<!-- Created with Inkscape (http://www.inkscape.org/) -->

<svg
   width="301.34958"
   height="169.32271"
   viewBox="0 0 79.732076 44.799968"
   version="1.1"
   id="svg7462"
   xmlns="http://www.w3.org/2000/svg"
   xmlns:svg="http://www.w3.org/2000/svg"
   xmlns:rdf="http://www.w3.org/1999/02/22-rdf-syntax-ns#"
   xmlns:cc="http://creativecommons.org/ns#"
   xmlns:dc="http://purl.org/dc/elements/1.1/">
  <defs
     id="defs7456" />
  <metadata
     id="metadata7459">
    <rdf:RDF>
      <cc:Work
         rdf:about="">
        <dc:format>image/svg+xml</dc:format>
        <dc:type
           rdf:resource="http://purl.org/dc/dcmitype/StillImage" />
      </cc:Work>
    </rdf:RDF>
  </metadata>
  <g
     id="layer1"
     transform="translate(319.92388,93.38987)">
    <path
       style="opacity:1;vector-effect:none;fill:#af1e3a;fill-opacity:1;stroke:none;stroke-width:0.176919;stroke-linecap:butt;stroke-linejoin:miter;stroke-miterlimit:4;stroke-dasharray:none;stroke-dashoffset:0;stroke-opacity:1;paint-order:markers stroke fill"
       d="m -313.32625,-92.066379 c 1.59132,0.01191 1.91333,0.110405 3.82777,0.754472 3.65647,1.230135 9.86166,4.503654 15.55826,8.13045 1.43326,0.912502 3.1366,1.876145 3.84299,2.254679 0.2788,0.149398 0.82146,0.569801 1.39363,0.591528 0.70413,0.02677 2.04063,-0.332408 3.30622,-0.650486 5.56214,-1.397931 8.9174,-1.053148 13.70301,0.193398 0.42395,0.110431 1.53653,0.588194 2.02694,0.593472 0.48441,0.005 1.41652,-0.285775 1.57277,-0.322654 2.44765,-0.577706 4.82316,-0.805005 7.85962,-0.805005 5.55352,0 9.80226,0.779503 15.15397,2.920066 2.66294,1.065109 3.56635,1.736928 3.56635,2.797938 0,1.011987 -0.84185,0.951061 -1.11827,1.146779 -0.20748,0.147999 -0.29633,0.466836 -0.8076,0.594769 -0.73631,0.184238 -2.11546,0.01072 -4.95738,0.06673 -5.53081,0.108941 -6.80253,0.339836 -10.16873,1.461655 -2.31127,0.770251 -4.63784,1.887308 -6.65454,3.288074 -3.58882,2.492717 -6.27655,5.725333 -6.72128,8.369847 -0.1458,0.866957 -0.0241,1.749587 0.56561,2.48533 0.74244,0.926363 2.14064,1.636033 3.71439,1.969605 1.37674,0.291814 5.07789,0.235991 8.91246,-0.03207 1.40156,-0.09798 2.50768,-0.346294 3.0409,-0.206353 0.38882,0.102039 0.47816,0.320023 0.87143,0.503413 0.25049,0.116811 0.43264,0.05847 0.80468,0.252034 0.42819,0.222779 0.682,0.978458 0.5154,1.455823 -0.51962,1.488885 -5.10732,2.791882 -13.77168,4.000757 -4.66569,0.373677 -9.8266,0.667091 -14.08624,-0.415626 -6.35719,-1.703405 -11.96988,-7.625083 -11.96988,-10.60865 0,-1.396509 0.51214,-1.525131 2.95084,-1.100453 1.29686,0.225838 2.33615,0.05163 3.00041,-0.507302 0.73974,-0.622449 1.17719,-1.740142 1.28478,-3.02341 0.12238,-1.459767 -0.22277,-2.705696 -1.12734,-4.557949 -1.02021,-2.089038 -2.64685,-4.004666 -5.35616,-6.716095 -5.02729,-5.031203 -13.15076,-10.454437 -18.4942,-12.380325 -3.49502,-1.259679 -6.01468,-0.357853 -6.00924,2.196048 0.004,2.098856 1.34383,4.837272 7.70057,11.666016 1.80167,1.935451 3.62336,3.704272 3.62336,3.786631 0,0.504125 -1.43273,-0.794929 -5.07691,-4.236592 -3.69095,-3.485829 -5.38987,-5.535946 -6.56902,-7.871618 -1.67204,-3.311978 -1.56882,-5.698119 0.29544,-7.104181 0.89851,-0.67768 1.78853,-0.955776 3.79667,-0.940743 z m 35.9129,12.928767 c -2.33024,-0.02576 -3.26249,0.73445 -3.26249,2.161055 0,1.256646 1.36466,2.303381 3.49184,2.663504 1.09273,0.184992 3.53302,0.08401 4.80188,-0.223846 1.21812,-0.295547 2.47841,-0.878425 2.59969,-1.372894 0.44028,-1.795115 -3.69945,-3.032904 -7.1463,-3.212266 -0.16791,-0.0087 -0.32928,-0.01385 -0.48462,-0.01555 z m -24.48596,8.353327 c 1.37891,-0.01318 2.91091,0.673569 4.0918,1.883108 1.45121,1.486419 1.96399,2.849595 1.49437,3.973548 -0.4806,1.150236 -2.43002,1.576876 -4.15885,0.910296 -0.88458,-0.341066 -2.0131,-1.195413 -2.87374,-2.175636 -1.57103,-1.789314 -1.31569,-3.972372 0.52253,-4.468218 0.29569,-0.07976 0.60569,-0.120054 0.92389,-0.123098 z"
       id="rect946" />
  </g>
</svg>
