<?xml version="1.0" encoding="UTF-8"?>
<svg xmlns="http://www.w3.org/2000/svg" xmlns:xlink="http://www.w3.org/1999/xlink" width="178px" height="100px" viewBox="0 0 178 100" version="1.1">
<g id="surface1">
<path style=" stroke:none;fill-rule:nonzero;fill:rgb(68.627451%,11.764706%,22.745098%);fill-opacity:1;" d="M 14.746094 2.960938 C 18.304688 2.988281 19.023438 3.207031 23.300781 4.648438 C 31.472656 7.398438 45.34375 14.71875 58.074219 22.832031 C 61.277344 24.871094 65.085938 27.027344 66.664062 27.871094 C 67.289062 28.207031 68.5 29.148438 69.78125 29.195312 C 71.351562 29.253906 74.339844 28.453125 77.167969 27.742188 C 89.601562 24.613281 97.101562 25.386719 107.796875 28.171875 C 108.742188 28.421875 111.230469 29.488281 112.328125 29.5 C 113.410156 29.511719 115.492188 28.863281 115.84375 28.777344 C 121.3125 27.488281 126.621094 26.980469 133.410156 26.980469 C 145.820312 26.980469 155.316406 28.722656 167.277344 33.507812 C 173.230469 35.890625 175.25 37.394531 175.25 39.765625 C 175.25 42.03125 173.367188 41.894531 172.75 42.332031 C 172.285156 42.660156 172.089844 43.375 170.945312 43.660156 C 169.300781 44.074219 166.21875 43.683594 159.867188 43.808594 C 147.503906 44.054688 144.660156 44.570312 137.136719 47.078125 C 131.972656 48.800781 126.773438 51.300781 122.265625 54.433594 C 114.242188 60.007812 108.234375 67.238281 107.242188 73.152344 C 106.914062 75.089844 107.1875 77.0625 108.503906 78.710938 C 110.164062 80.78125 113.289062 82.367188 116.808594 83.113281 C 119.886719 83.765625 128.15625 83.640625 136.726562 83.042969 C 139.859375 82.824219 142.332031 82.269531 143.523438 82.582031 C 144.394531 82.808594 144.59375 83.296875 145.472656 83.707031 C 146.03125 83.96875 146.4375 83.835938 147.269531 84.269531 C 148.226562 84.769531 148.792969 86.457031 148.421875 87.527344 C 147.261719 90.855469 137.007812 93.769531 117.640625 96.472656 C 107.214844 97.308594 95.679688 97.964844 86.15625 95.542969 C 71.949219 91.734375 59.40625 78.492188 59.40625 71.820312 C 59.40625 68.695312 60.550781 68.40625 66 69.359375 C 68.898438 69.863281 71.222656 69.472656 72.707031 68.222656 C 74.359375 66.832031 75.335938 64.332031 75.578125 61.460938 C 75.851562 58.195312 75.078125 55.410156 73.058594 51.269531 C 70.777344 46.597656 67.140625 42.3125 61.085938 36.25 C 49.851562 24.996094 31.695312 12.867188 19.75 8.5625 C 11.9375 5.742188 6.308594 7.761719 6.320312 13.472656 C 6.328125 18.164062 9.324219 24.289062 23.53125 39.5625 C 27.558594 43.890625 31.628906 47.847656 31.628906 48.03125 C 31.628906 49.15625 28.425781 46.253906 20.28125 38.554688 C 12.03125 30.761719 8.234375 26.175781 5.601562 20.953125 C 1.863281 13.542969 2.09375 8.207031 6.261719 5.0625 C 8.269531 3.546875 10.257812 2.925781 14.746094 2.960938 Z M 95.015625 31.875 C 89.804688 31.816406 87.722656 33.515625 87.722656 36.707031 C 87.722656 39.515625 90.773438 41.859375 95.527344 42.664062 C 97.96875 43.078125 103.421875 42.851562 106.257812 42.164062 C 108.980469 41.5 111.796875 40.199219 112.070312 39.09375 C 113.054688 35.078125 103.800781 32.308594 96.097656 31.910156 C 95.722656 31.890625 95.359375 31.878906 95.015625 31.875 Z M 40.285156 50.554688 C 43.367188 50.527344 46.792969 52.0625 49.429688 54.765625 C 52.675781 58.089844 53.820312 61.140625 52.773438 63.652344 C 51.699219 66.226562 47.339844 67.179688 43.476562 65.6875 C 41.5 64.925781 38.976562 63.015625 37.054688 60.824219 C 33.542969 56.820312 34.113281 51.941406 38.222656 50.832031 C 38.882812 50.652344 39.574219 50.5625 40.285156 50.554688 Z M 40.285156 50.554688 "/>
</g>
</svg>
