<?xml version="1.0" encoding="UTF-8"?>
<svg xmlns="http://www.w3.org/2000/svg" xmlns:xlink="http://www.w3.org/1999/xlink" width="94px" height="100px" viewBox="0 0 94 99" version="1.1">
<g id="surface1">
<path style=" stroke:none;fill-rule:nonzero;fill:rgb(100%,0%,0%);fill-opacity:1;" d="M 46.746094 16.242188 L 39.132812 5.449219 L 35.402344 0.164062 C 35.347656 0.0664062 35.238281 0.0078125 35.125 0.0195312 L 0.167969 0.0195312 C 0.046875 0.0195312 0.00390625 0.0664062 0 0.15625 L 0 52.441406 C -0.0078125 52.558594 0.03125 52.675781 0.117188 52.761719 L 3.59375 56.871094 L 16.9375 72.664062 L 20.015625 76.308594 L 24.75 81.914062 L 38.855469 98.625 C 38.921875 98.710938 39.027344 98.753906 39.132812 98.742188 L 54.636719 98.742188 C 54.746094 98.753906 54.851562 98.710938 54.914062 98.625 L 69.027344 81.921875 L 73.761719 76.320312 L 76.839844 72.675781 L 90.179688 56.871094 L 93.65625 52.753906 C 93.738281 52.667969 93.78125 52.550781 93.769531 52.433594 L 93.769531 0.140625 C 93.769531 0.0507812 93.726562 0.00390625 93.605469 0.00390625 L 58.636719 0.00390625 C 58.519531 -0.0117188 58.410156 0.046875 58.355469 0.144531 L 54.625 5.433594 L 47.007812 16.242188 C 46.914062 16.402344 46.875 16.4375 46.746094 16.242188 Z M 46.726562 81.777344 L 25.699219 56.871094 L 25.457031 56.59375 C 25.386719 56.511719 25.371094 56.394531 25.414062 56.296875 L 29.714844 40.351562 C 29.792969 40.074219 29.714844 40.050781 29.453125 40.058594 L 17.125 40.058594 C 16.976562 40.058594 16.941406 40.007812 16.9375 39.84375 L 16.9375 17.039062 C 16.9375 16.859375 16.992188 16.828125 17.15625 16.832031 L 26.292969 16.832031 C 26.414062 16.8125 26.535156 16.871094 26.59375 16.980469 L 33.414062 26.664062 L 39.289062 35.003906 C 39.390625 35.199219 39.609375 35.3125 39.832031 35.28125 L 53.945312 35.28125 C 54.164062 35.3125 54.382812 35.199219 54.484375 35.003906 L 60.363281 26.664062 L 67.179688 16.980469 C 67.238281 16.871094 67.359375 16.8125 67.484375 16.832031 L 76.617188 16.832031 C 76.78125 16.832031 76.84375 16.859375 76.835938 17.039062 L 76.835938 39.84375 C 76.835938 40.007812 76.796875 40.0625 76.648438 40.058594 L 64.320312 40.058594 C 64.066406 40.058594 63.980469 40.082031 64.058594 40.351562 L 68.359375 56.296875 C 68.40625 56.394531 68.386719 56.511719 68.316406 56.59375 L 68.074219 56.871094 L 47.058594 81.777344 C 46.914062 81.929688 46.886719 81.960938 46.726562 81.777344 Z M 46.726562 81.777344 "/>
</g>
</svg>
