<?xml version="1.0" encoding="UTF-8" standalone="no"?>
<svg
   width="356.67191"
   height="159.03122"
   viewBox="0 0 356.67191 159.03122"
   version="1.1"
   id="svg1725"
   xmlns="http://www.w3.org/2000/svg"
   xmlns:svg="http://www.w3.org/2000/svg">
  <defs
     id="defs1729" />
  <g
     id="surface1"
     transform="translate(2.0426083,3.0945818)">
    <path
       style="fill:#ae1c38;fill-opacity:1;fill-rule:nonzero;stroke:none"
       d="m 14.746094,2.960938 c 3.558594,0.027343 4.277344,0.246093 8.554687,1.6875 8.171875,2.75 22.042969,10.070312 34.773438,18.183593 3.203125,2.039063 7.011719,4.195313 8.589843,5.039063 0.625,0.335937 1.835938,1.277344 3.117188,1.324218 1.570312,0.05859 4.558594,-0.742187 7.386719,-1.453124 12.433593,-3.128907 19.933593,-2.355469 30.628911,0.429687 0.94531,0.25 3.43359,1.316406 4.53125,1.328125 1.08203,0.01172 3.16406,-0.636719 3.51562,-0.722656 5.46875,-1.289063 10.77734,-1.796875 17.56641,-1.796875 12.41015,0 21.90625,1.742187 33.86718,6.527343 5.95313,2.382813 7.97266,3.886719 7.97266,6.257813 0,2.265625 -1.88281,2.128906 -2.5,2.566406 -0.46484,0.328125 -0.66016,1.042969 -1.80469,1.328125 -1.64453,0.414063 -4.72656,0.02344 -11.07812,0.148438 -12.36328,0.246094 -15.20703,0.761718 -22.73047,3.269531 -5.16406,1.722656 -10.36328,4.222656 -14.87109,7.355469 -8.02344,5.574218 -14.03125,12.804687 -15.02344,18.71875 -0.32813,1.9375 -0.0547,3.910156 1.26172,5.558594 1.66015,2.070312 4.78515,3.65625 8.30468,4.402343 3.07813,0.652344 11.34766,0.527344 19.91797,-0.07031 3.13281,-0.21875 5.60547,-0.773438 6.79688,-0.460938 0.87109,0.226563 1.07031,0.714844 1.94922,1.125 0.55859,0.261719 0.96484,0.128907 1.79687,0.5625 0.95703,0.5 1.52344,2.1875 1.15234,3.257813 -1.16015,3.328125 -11.41406,6.242187 -30.78124,8.945312 -10.42579,0.835938 -21.960942,1.492188 -31.48438,-0.929687 -14.207031,-3.808594 -26.75,-17.050781 -26.75,-23.722657 0,-3.125 1.144531,-3.414062 6.59375,-2.460937 2.898438,0.503906 5.222656,0.113281 6.707031,-1.136719 1.652344,-1.390625 2.628907,-3.890625 2.871094,-6.761718 0.273437,-3.265626 -0.5,-6.050782 -2.519531,-10.191407 C 70.777344,46.597656 67.140625,42.3125 61.085938,36.25 49.851562,24.996094 31.695312,12.867188 19.75,8.5625 11.9375,5.742188 6.308594,7.761719 6.320312,13.472656 6.328125,18.164062 9.324219,24.289062 23.53125,39.5625 c 4.027344,4.328125 8.097656,8.285156 8.097656,8.46875 0,1.125 -3.203125,-1.777344 -11.347656,-9.476562 C 12.03125,30.761719 8.234375,26.175781 5.601562,20.953125 1.863281,13.542969 2.09375,8.207031 6.261719,5.0625 8.269531,3.546875 10.257812,2.925781 14.746094,2.960938 Z M 95.015625,31.875 c -5.210937,-0.05859 -7.292969,1.640625 -7.292969,4.832031 0,2.808594 3.050782,5.152344 7.804688,5.957031 2.441406,0.414063 7.894536,0.1875 10.730466,-0.5 2.72266,-0.664062 5.53907,-1.964843 5.8125,-3.070312 0.98438,-4.015625 -8.26953,-6.785156 -15.972654,-7.183594 -0.375,-0.01953 -0.738281,-0.03125 -1.082031,-0.03516 z M 40.285156,50.554688 c 3.082032,-0.02734 6.507813,1.507812 9.144532,4.210937 3.246093,3.324219 4.390624,6.375 3.34375,8.886719 -1.074219,2.574218 -5.433594,3.527344 -9.296876,2.035156 -1.976562,-0.761719 -4.5,-2.671875 -6.421874,-4.863281 -3.511719,-4.003907 -2.941407,-8.882813 1.167968,-9.992188 0.660156,-0.179687 1.351563,-0.269531 2.0625,-0.277343 z m 0,0"
       id="path1722" />
  </g>
  <path
     style="fill:#ff0000;fill-opacity:1;fill-rule:nonzero;stroke:none"
     d="m 304.64656,21.240792 -7.61328,-10.79297 -3.73047,-5.2851565 c -0.0547,-0.097656 -0.16406,-0.1562495 -0.27734,-0.1445308 h -34.95703 c -0.1211,0 -0.16406,0.046875 -0.16797,0.1367188 V 57.44001 c -0.008,0.117188 0.0312,0.234375 0.11719,0.320313 l 3.47656,4.109375 13.34375,15.792968 3.07812,3.644532 4.73438,5.605468 14.10547,16.710934 c 0.0664,0.0859 0.17187,0.12891 0.27734,0.11719 h 15.50391 c 0.10937,0.0117 0.21484,-0.0312 0.27734,-0.11719 l 14.11329,-16.703121 4.73437,-5.601563 3.07813,-3.644531 13.33984,-15.804687 3.47656,-4.117188 c 0.082,-0.08594 0.125,-0.203125 0.11328,-0.320312 V 5.1392285 c 0,-0.089844 -0.043,-0.1367188 -0.16406,-0.1367188 h -34.96875 c -0.11719,-0.015625 -0.22656,0.042969 -0.28125,0.1406248 l -3.73047,5.2890625 -7.61719,10.808595 c -0.0937,0.160156 -0.13281,0.195312 -0.26172,0 z m -0.0195,65.535156 -21.02734,-24.90625 -0.24219,-0.277344 c -0.0703,-0.08203 -0.0859,-0.199219 -0.043,-0.296875 l 4.30078,-15.945313 c 0.0781,-0.277343 0,-0.300781 -0.26172,-0.292968 h -12.32812 c -0.14844,0 -0.18359,-0.05078 -0.1875,-0.214844 V 22.037666 c 0,-0.179687 0.0547,-0.210937 0.21875,-0.207031 h 9.13672 c 0.12109,-0.01953 0.24219,0.03906 0.30078,0.148438 l 6.82031,9.683593 5.875,8.339844 c 0.10156,0.195313 0.32031,0.308594 0.54297,0.277344 h 14.11328 c 0.21875,0.03125 0.4375,-0.08203 0.53906,-0.277344 l 5.87891,-8.339844 6.81641,-9.683593 c 0.0586,-0.109375 0.17969,-0.167969 0.30469,-0.148438 h 9.13281 c 0.16406,0 0.22656,0.02734 0.21875,0.207031 v 22.804688 c 0,0.164062 -0.0391,0.21875 -0.1875,0.214844 h -12.32813 c -0.2539,0 -0.33984,0.02344 -0.26171,0.292968 l 4.30078,15.945313 c 0.0469,0.09766 0.0273,0.214844 -0.043,0.296875 l -0.24219,0.277344 -21.01563,24.90625 c -0.14453,0.152344 -0.17187,0.183594 -0.33203,0 z m 0,0"
     id="path1781" />
  <text
     xml:space="preserve"
     style="font-style:normal;font-weight:normal;font-size:40px;line-height:1.25;font-family:sans-serif;fill:#000000;fill-opacity:1;stroke:none"
     x="69.275536"
     y="153.38359"
     id="text8328"><tspan
       id="tspan8326"
       x="69.275536"
       y="153.38359"
       style="font-style:normal;font-variant:normal;font-weight:normal;font-stretch:normal;font-size:32px;font-family:Roboto;-inkscape-font-specification:'Roboto, Normal';font-variant-ligatures:normal;font-variant-caps:normal;font-variant-numeric:normal;font-variant-east-asian:normal">old</tspan></text>
  <text
     xml:space="preserve"
     style="font-style:normal;font-weight:normal;font-size:40px;line-height:1.25;font-family:sans-serif;fill:#000000;fill-opacity:1;stroke:none"
     x="277.40262"
     y="153.71872"
     id="text8830"><tspan
       id="tspan8828"
       x="277.40262"
       y="153.71872"
       style="font-style:normal;font-variant:normal;font-weight:normal;font-stretch:normal;font-size:32px;font-family:Roboto;-inkscape-font-specification:'Roboto, Normal';font-variant-ligatures:normal;font-variant-caps:normal;font-variant-numeric:normal;font-variant-east-asian:normal">new</tspan></text>
</svg>
