<?xml version="1.0" encoding="UTF-8" standalone="no"?>
<svg
   width="82.798172"
   height="87.772644"
   viewBox="0 0 336.60308 198.87725"
   version="1.1"
   id="svg-replaced-0"
   class="attachment-full size-full style-svg replaced-svg svg-replaced-0"
   xmlns="http://www.w3.org/2000/svg"
   xmlns:svg="http://www.w3.org/2000/svg"
   xmlns:rdf="http://www.w3.org/1999/02/22-rdf-syntax-ns#"
   xmlns:cc="http://creativecommons.org/ns#"
   xmlns:dc="http://purl.org/dc/elements/1.1/">
  <defs
     id="defs73" />
  <title
     id="title58">logo-mouz-header</title>
  <g
     id="Page-1"
     stroke="none"
     stroke-width="1"
     fill="none"
     fill-rule="evenodd"
     transform="translate(-0.523459,-79.46727)">
    <g
       id="logo-mouz-header"
       transform="translate(0.523459,0.492879)"
       fill="#ff0000"
       fill-rule="nonzero">
      <path
         d="m 167.80654,58.697121 -27.34,-39 -13.38,-19.10999974 c -0.20417,-0.35271371 -0.594,-0.55542396 -1,-0.52 H 0.59654144 c -0.43,0 -0.57999999,0.17 -0.58999999,0.5 V 189.50712 c -0.04064185,0.42517 0.10955055,0.84644 0.41,1.15 l 12.47999955,14.85 47.9,57.08 11.05,13.17 17,20.25 50.629999,60.39 c 0.23377,0.30937 0.61544,0.46967 1,0.42 h 55.65 c 0.38427,0.0476 0.76493,-0.11232 1,-0.42 l 50.65,-60.36 17,-20.25 11.05,-13.17 47.89,-57.11 12.47,-14.88 c 0.30045,-0.30356 0.45064,-0.72483 0.41,-1.15 V 0.50712126 c 0,-0.33 -0.16,-0.5 -0.59,-0.5 h -125.53 c -0.40857,-0.04892135 -0.8054,0.15743033 -1,0.52 l -13.39,19.10999974 -27.35,39.06 c -0.34,0.58 -0.48,0.7 -0.93,0 z m -0.07,236.809999 -75.489999,-90 -0.86,-1 c -0.258324,-0.29453 -0.320866,-0.71278 -0.16,-1.07 l 15.439999,-57.62 c 0.28,-1 0,-1.09 -0.94,-1.06 H 61.476541 c -0.54,0 -0.67,-0.18 -0.68,-0.78 V 61.567121 c 0,-0.64 0.2,-0.751979 0.79,-0.74 h 32.79 c 0.438012,-0.06598 0.871395,0.144747 1.09,0.53 l 24.469999,35 21.1,30.129999 c 0.36718,0.71301 1.14623,1.11458 1.94,1 h 50.66 c 0.79377,0.11458 1.57283,-0.28699 1.94,-1 l 21.1,-30.129999 24.47,-35 c 0.21861,-0.385253 0.65199,-0.59598 1.09,-0.53 h 32.79 c 0.59,0 0.81,0.1 0.79124,0.74 v 82.409999 c 0,0.6 -0.14124,0.79 -0.68124,0.78 h -44.25 c -0.91,0 -1.22,0.08 -0.94,1.06 l 15.44,57.62 c 0.16087,0.35722 0.0983,0.77547 -0.16,1.07 l -0.86,1 -75.44,90 c -0.53,0.56 -0.62,0.67 -1.19,0 z"
         id="Shape" />
    </g>
  </g>
  <metadata
     id="metadata1408">
    <rdf:RDF>
      <cc:Work
         rdf:about="">
        <dc:title>logo-mouz-header</dc:title>
      </cc:Work>
    </rdf:RDF>
  </metadata>
</svg>
